<svg width="23" height="19" viewBox="0 0 23 19" fill="none" xmlns="http://www.w3.org/2000/svg">
<path d="M5.184 9.94195C4.304 9.94195 3.512 9.78195 2.808 9.46195C2.12 9.12595 1.576 8.62195 1.176 7.94995C0.792 7.26195 0.6 6.40595 0.6 5.38195C0.6 4.50195 0.736 3.76595 1.008 3.17395C1.28 2.56595 1.64 2.08595 2.088 1.73395C2.536 1.38195 3.04 1.12595 3.6 0.965953C4.16 0.805952 4.72 0.725952 5.28 0.725952C6.16 0.725952 6.944 0.893952 7.632 1.22995C8.336 1.54995 8.888 2.05395 9.288 2.74195C9.688 3.41395 9.888 4.26995 9.888 5.30995C9.888 6.46195 9.656 7.38195 9.192 8.06995C8.728 8.74195 8.136 9.22195 7.416 9.50995C6.696 9.79795 5.952 9.94195 5.184 9.94195ZM5.28 7.37395C5.584 7.37395 5.872 7.31795 6.144 7.20595C6.416 7.07795 6.632 6.86995 6.792 6.58195C6.968 6.29395 7.056 5.90995 7.056 5.42995C7.056 4.90195 6.968 4.48595 6.792 4.18195C6.616 3.87795 6.384 3.65395 6.096 3.50995C5.808 3.36595 5.504 3.29395 5.184 3.29395C4.88 3.29395 4.592 3.35795 4.32 3.48595C4.048 3.61395 3.824 3.82195 3.648 4.10995C3.488 4.39795 3.408 4.78995 3.408 5.28595C3.408 5.78195 3.496 6.18995 3.672 6.50995C3.864 6.81395 4.104 7.03795 4.392 7.18195C4.68 7.30995 4.976 7.37395 5.28 7.37395ZM18.144 18.51C17.264 18.51 16.472 18.342 15.768 18.006C15.08 17.686 14.536 17.19 14.136 16.518C13.752 15.83 13.56 14.974 13.56 13.95C13.56 13.07 13.696 12.334 13.968 11.742C14.24 11.134 14.6 10.654 15.048 10.302C15.496 9.94995 16 9.69395 16.56 9.53395C17.12 9.37395 17.68 9.29395 18.24 9.29395C19.12 9.29395 19.904 9.46195 20.592 9.79795C21.296 10.118 21.848 10.622 22.248 11.31C22.648 11.982 22.848 12.838 22.848 13.878C22.848 15.03 22.616 15.95 22.152 16.638C21.688 17.31 21.096 17.79 20.376 18.078C19.656 18.366 18.912 18.51 18.144 18.51ZM18.24 15.942C18.544 15.942 18.832 15.886 19.104 15.774C19.376 15.646 19.592 15.438 19.752 15.15C19.928 14.862 20.016 14.47 20.016 13.974C20.016 13.462 19.928 13.054 19.752 12.75C19.576 12.446 19.344 12.222 19.056 12.078C18.768 11.934 18.464 11.862 18.144 11.862C17.84 11.862 17.552 11.926 17.28 12.054C17.008 12.182 16.784 12.39 16.608 12.678C16.448 12.95 16.368 13.334 16.368 13.83C16.368 14.326 16.456 14.734 16.632 15.054C16.824 15.374 17.064 15.606 17.352 15.75C17.64 15.878 17.936 15.942 18.24 15.942ZM5.184 17.502L14.616 1.66195H17.976L8.544 17.502H5.184Z" fill="#583CEA"/>
</svg>
