<svg width="36" height="36" viewBox="0 0 36 36" fill="none" xmlns="http://www.w3.org/2000/svg">
<g id="fi_3179465" clip-path="url(#clip0_138_156023)">
<g id="Group">
<g id="Group_2">
<path id="Vector" d="M28.6608 36.0002C28.5363 36.0002 28.4103 35.9687 28.2978 35.9072L18.0003 30.2147L7.70126 35.9072C7.45076 36.0467 7.14026 36.0287 6.90626 35.8637C6.67226 35.6987 6.55226 35.4137 6.59726 35.1302L8.57276 23.0222L0.213263 14.4512C0.0167634 14.2502 -0.0507367 13.9562 0.0392633 13.6892C0.129263 13.4222 0.358763 13.2287 0.636263 13.1867L12.1608 11.4257L17.3208 0.430668C17.5683 -0.097332 18.4308 -0.097332 18.6783 0.430668L23.8383 11.4257L35.3628 13.1867C35.6403 13.2287 35.8713 13.4237 35.9598 13.6892C36.0483 13.9547 35.9823 14.2502 35.7858 14.4512L27.4248 23.0207L29.4003 35.1287C29.4468 35.4122 29.3268 35.6972 29.0913 35.8622C28.9653 35.9537 28.8123 36.0002 28.6608 36.0002ZM18.0003 28.6067C18.1248 28.6067 18.2508 28.6382 18.3633 28.6997L27.6738 33.8462L25.8858 22.8887C25.8483 22.6532 25.9233 22.4147 26.0898 22.2437L33.6948 14.4482L23.2188 12.8477C22.9713 12.8102 22.7598 12.6512 22.6533 12.4247L18.0003 2.51567L13.3488 12.4262C13.2423 12.6527 13.0308 12.8117 12.7833 12.8477L2.30726 14.4482L9.91226 22.2437C10.0788 22.4147 10.1538 22.6532 10.1163 22.8887L8.32826 33.8462L17.6388 28.6997C17.7498 28.6382 17.8758 28.6067 18.0003 28.6067Z" fill="#5D5C65"/>
</g>
</g>
</g>
<defs>
<clipPath id="clip0_138_156023">
<rect width="36" height="36" fill="white"/>
</clipPath>
</defs>
</svg>
