<svg width="36" height="36" viewBox="0 0 36 36" fill="none" xmlns="http://www.w3.org/2000/svg">
<g id="fi_273837">
<g id="Group">
<g id="Group_2">
<g id="Group_3">
<path id="Vector" d="M32.25 6H27.75C27.336 6 27 6.33602 27 6.75002C27 7.16402 27.336 7.50005 27.75 7.50005H32.25C33.4905 7.50005 34.5 8.50952 34.5 9.75005V30.438L29.781 25.719C29.64 25.5795 29.4495 25.5 29.25 25.5H14.25C13.836 25.5 13.5 25.836 13.5 26.25C13.5 26.664 13.836 27 14.25 27H28.9395L34.7205 32.781C34.863 32.9236 35.055 33.0001 35.25 33.0001C35.346 33.0001 35.4435 32.9821 35.535 32.943C35.817 32.8275 36 32.553 36 32.25V9.75005C36 7.683 34.317 6 32.25 6Z" fill="#5D5C65"/>
<path id="Vector_2" d="M25.5 20.25V6.74998C25.5 4.683 23.817 3 21.75 3H3.75005C1.683 3 0 4.683 0 6.74998V29.25C0 29.553 0.183023 29.8275 0.4635 29.943C0.558 29.982 0.655523 30 0.750023 30C0.945 30 1.13702 29.9235 1.27955 29.781L7.06205 24H21.75C23.817 24 25.5 22.317 25.5 20.25ZM6.75 22.5015C6.55052 22.5015 6.35998 22.5794 6.219 22.7205L1.49998 27.4395V6.74998C1.49998 5.50945 2.511 4.49998 3.74998 4.49998V4.50145H21.75C22.9905 4.50145 24 5.51093 24 6.75145V20.2515C24 21.492 22.9905 22.5015 21.75 22.5015H6.75Z" fill="#5D5C65"/>
</g>
</g>
</g>
</g>
</svg>
