<svg width="36" height="36" viewBox="0 0 36 36" fill="none" xmlns="http://www.w3.org/2000/svg">
<g id="fi_3179387" clip-path="url(#clip0_138_156031)">
<g id="Group">
<g id="Group_2">
<path id="Vector" d="M6.75 36H2.25C1.0095 36 0 34.9905 0 33.75V12.75C0 11.5095 1.0095 10.5 2.25 10.5H6.75C7.9905 10.5 9 11.5095 9 12.75V33.75C9 34.9905 7.9905 36 6.75 36ZM2.25 12C1.836 12 1.5 12.336 1.5 12.75V33.75C1.5 34.164 1.836 34.5 2.25 34.5H6.75C7.164 34.5 7.5 34.164 7.5 33.75V12.75C7.5 12.336 7.164 12 6.75 12H2.25Z" fill="#5D5C65"/>
</g>
</g>
<g id="Group_3">
<g id="Group_4">
<path id="Vector_2" d="M27.5 36H24.7505C13.391 36 8.03602 32.2695 7.81402 32.1105C7.47652 31.8705 7.40002 31.404 7.63852 31.0665C7.87702 30.729 8.34502 30.651 8.68402 30.888C8.73652 30.9255 13.9205 34.5 24.7505 34.5H27.5C30.077 34.5 32.255 32.655 32.678 30.114L34.4285 19.614C34.682 18.0885 34.2545 16.5375 33.2555 15.357C32.255 14.1765 30.7955 13.5 29.249 13.5H20.2505C19.9745 13.5 19.7225 13.347 19.592 13.1055C19.4615 12.864 19.4735 12.567 19.625 12.336C19.6385 12.315 21.0005 10.2015 21.0005 6.75C21.0005 2.5965 19.0385 1.5 18.0005 1.5C17.2625 1.5 16.5005 1.5 16.5005 5.25C16.5005 10.899 8.90902 14.7585 8.58652 14.9205C8.21752 15.1065 7.76602 14.9565 7.58152 14.5845C7.39552 14.2155 7.54402 13.7655 7.91452 13.5795C7.98502 13.5435 15.0005 9.9705 15.0005 5.25C15.0005 2.0085 15.5015 0 18.0005 0C19.5575 0 22.5005 1.41 22.5005 6.75C22.5005 9.111 21.938 10.914 21.4745 12H29.249C31.2365 12 33.1145 12.87 34.4 14.3865C35.6855 15.903 36.2345 17.898 35.9075 19.8585L34.157 30.3585C33.6125 33.627 30.8135 36 27.5 36Z" fill="#5D5C65"/>
</g>
</g>
</g>
<defs>
<clipPath id="clip0_138_156031">
<rect width="36" height="36" fill="white"/>
</clipPath>
</defs>
</svg>
