<svg width="199" height="224" viewBox="0 0 199 224" fill="none" xmlns="http://www.w3.org/2000/svg">
<g id="logo shape" opacity="0.08">
<path id="Vector" d="M131.173 30.7498L154.493 0.00893402L198.956 0.00893402L158.882 52.1846C158.882 52.1846 158.882 52.1846 158.864 52.1664L131.164 30.7589L131.173 30.7498Z" fill="#583CEA"/>
<path id="Vector_2" d="M100.265 35.0291L86.2244 53.1768L45.3672 -0.000507355L84.3123 -0.000507355L106.649 29.4473C104.208 30.8587 102.014 32.7527 100.256 35.0291H100.265Z" fill="#583CEA"/>
<path id="Vector_3" d="M141.751 110.735L155.155 93.4067L190.949 140.602H153.379L134.922 116.572C137.544 115.124 139.884 113.148 141.742 110.726L141.751 110.735Z" fill="#583CEA"/>
<path id="Vector_4" d="M91.1882 99.8537L102.388 108.513L38.8485 190.674C43.5198 197.967 43.3741 207.711 37.7741 214.959C30.6444 224.174 17.4047 225.867 8.18974 218.738C-1.02522 211.608 -2.71891 198.368 4.41085 189.153C10.02 181.905 19.4171 179.31 27.6577 182.014L91.1972 99.8537H91.1882Z" fill="#583CEA"/>
<path id="Vector_5" d="M161.071 67.7825C161.608 72.0258 160.47 76.2144 157.847 79.5926L136.731 106.901C133.745 110.78 129.01 113.102 124.093 113.102C120.56 113.102 117.09 111.909 114.295 109.751L87.0051 88.6346C80.0392 83.244 78.7554 73.2004 84.1278 66.2437L105.271 38.9084C108.331 34.9656 112.938 32.7074 117.91 32.7074C121.434 32.7074 124.903 33.8911 127.68 36.0401L154.997 57.1744C158.376 59.7786 160.534 63.5575 161.071 67.7917V67.7825ZM145.364 69.6219L118.055 48.4967C118.055 48.4967 117.964 48.4511 117.91 48.4511C117.846 48.4511 117.773 48.4876 117.728 48.5422L96.6025 75.8502C96.5206 75.9594 96.5388 76.1051 96.6481 76.178L123.956 97.3032C123.956 97.3032 124.047 97.3487 124.093 97.3487C124.165 97.3487 124.229 97.3214 124.284 97.2577L145.409 69.9497C145.491 69.8495 145.473 69.7038 145.373 69.6219H145.364Z" fill="#583CEA"/>
</g>
</svg>
