<svg width="36" height="36" viewBox="0 0 36 36" fill="none" xmlns="http://www.w3.org/2000/svg">
<g id="fi_2891240">
<g id="Group">
<g id="XMLID_1_">
<path id="Vector" d="M33.75 26.5498C33.75 26.8303 33.6015 27.0943 33.354 27.2593C33.222 27.3418 33.0735 27.3748 32.925 27.3748C32.793 27.3748 32.6775 27.3418 32.562 27.2923L25.5 23.7613V21.9133L32.1 25.2133V11.3863L25.5 14.6863V12.8383L32.562 9.30728C32.8095 9.17528 33.123 9.19178 33.354 9.34028C33.6015 9.50528 33.75 9.76928 33.75 10.0498V26.5498Z" fill="#5D5C65"/>
<path id="Vector_2" d="M23.9321 22.0616C24.1466 21.6491 24.6416 21.4841 25.0376 21.6821L25.4996 21.9131V23.7611L24.3116 23.1671C24.0146 23.0186 23.8496 22.7216 23.8496 22.4246C23.8496 22.2926 23.8826 22.1771 23.9321 22.0616Z" fill="#5D5C65"/>
<path id="Vector_3" d="M25.0376 21.6823C24.6416 21.4843 24.1466 21.6493 23.9321 22.0618C23.8826 22.1773 23.8496 22.2928 23.8496 22.4248V14.1748C23.8496 14.3068 23.8826 14.4223 23.9321 14.5378C24.1466 14.9503 24.6416 15.1153 25.0376 14.9173L25.4996 14.6863V21.9133L25.0376 21.6823Z" fill="#5D5C65"/>
<path id="Vector_4" d="M23.9321 14.5379C23.8826 14.4224 23.8496 14.3069 23.8496 14.1749C23.8496 13.8779 24.0146 13.5809 24.3116 13.4324L25.4996 12.8384V14.6864L25.0376 14.9174C24.6416 15.1154 24.1466 14.9504 23.9321 14.5379Z" fill="#5D5C65"/>
<path id="Vector_5" d="M2.40039 11.6999C2.40039 9.8849 3.88539 8.3999 5.70039 8.3999H22.2004C24.0154 8.3999 25.5004 9.8849 25.5004 11.6999V12.8384L24.3124 13.4324C24.0154 13.5809 23.8504 13.8779 23.8504 14.1749V11.6999C23.8504 10.7924 23.1079 10.0499 22.2004 10.0499H5.70039C4.79289 10.0499 4.05039 10.7924 4.05039 11.6999V24.8999C4.05039 25.8074 4.79289 26.5499 5.70039 26.5499H22.2004C23.1079 26.5499 23.8504 25.8074 23.8504 24.8999V22.4249C23.8504 22.7219 24.0154 23.0189 24.3124 23.1674L25.5004 23.7614V24.8999C25.5004 26.7149 24.0154 28.1999 22.2004 28.1999H5.70039C3.88539 28.1999 2.40039 26.7149 2.40039 24.8999V11.6999Z" fill="#5D5C65"/>
</g>
</g>
</g>
</svg>
