<svg width="36" height="36" viewBox="0 0 36 36" fill="none" xmlns="http://www.w3.org/2000/svg">
<g id="fi_4296929" clip-path="url(#clip0_138_156063)">
<path id="Vector" d="M29.1195 28.5H15.015C13.3425 28.5 11.8605 27.3795 11.4135 25.776L6.645 9.132C6.375 8.169 5.4885 7.5 4.485 7.5H0.75C0.336 7.5 0 7.164 0 6.75C0 6.336 0.336 6 0.75 6H4.485C6.1575 6 7.6395 7.1205 8.0865 8.724L9.027 12H33.7485C34.467 12 35.1255 12.33 35.553 12.906C35.982 13.482 36.1095 14.208 35.9025 14.895L32.676 25.92C32.157 27.474 30.7305 28.5 29.1195 28.5ZM9.456 13.5L12.8565 25.368C13.125 26.331 14.0115 27 15.015 27H29.1195C30.0705 27 30.9435 26.3715 31.2435 25.473L34.467 14.466C34.536 14.2365 34.4925 13.995 34.35 13.803C34.2075 13.6095 33.9885 13.5 33.7485 13.5H9.456Z" fill="#5D5C65"/>
<path id="Vector_2" d="M16.5 36C14.8455 36 13.5 34.6545 13.5 33C13.5 31.3455 14.8455 30 16.5 30C18.1545 30 19.5 31.3455 19.5 33C19.5 34.6545 18.1545 36 16.5 36ZM16.5 31.5C15.672 31.5 15 32.1735 15 33C15 33.8265 15.672 34.5 16.5 34.5C17.328 34.5 18 33.8265 18 33C18 32.1735 17.328 31.5 16.5 31.5Z" fill="#5D5C65"/>
<path id="Vector_3" d="M27 36C25.3455 36 24 34.6545 24 33C24 31.3455 25.3455 30 27 30C28.6545 30 30 31.3455 30 33C30 34.6545 28.6545 36 27 36ZM27 31.5C26.172 31.5 25.5 32.1735 25.5 33C25.5 33.8265 26.172 34.5 27 34.5C27.828 34.5 28.5 33.8265 28.5 33C28.5 32.1735 27.828 31.5 27 31.5Z" fill="#5D5C65"/>
</g>
<defs>
<clipPath id="clip0_138_156063">
<rect width="36" height="36" fill="white"/>
</clipPath>
</defs>
</svg>
