<svg width="36" height="36" viewBox="0 0 36 36" fill="none" xmlns="http://www.w3.org/2000/svg">
<g id="fi_3602233" clip-path="url(#clip0_138_156054)">
<g id="Group">
<path id="Vector" d="M18 36C8.0745 36 0 27.9255 0 18C0 8.0745 8.0745 0 18 0C27.9255 0 36 8.0745 36 18C36 27.9255 27.9255 36 18 36ZM18 1.5C8.9025 1.5 1.5 8.9025 1.5 18C1.5 27.0975 8.9025 34.5 18 34.5C27.0975 34.5 34.5 27.0975 34.5 18C34.5 8.9025 27.0975 1.5 18 1.5Z" fill="#5D5C65"/>
</g>
<g id="Group_2">
<path id="Vector_2" d="M26.25 27C26.058 27 25.866 26.9265 25.719 26.781L17.469 18.531C17.3295 18.39 17.25 18.1995 17.25 18V6.75C17.25 6.336 17.586 6 18 6C18.414 6 18.75 6.336 18.75 6.75V17.6895L26.781 25.7205C27.0735 26.013 27.0735 26.4885 26.781 26.781C26.634 26.9265 26.442 27 26.25 27Z" fill="#5D5C65"/>
</g>
</g>
<defs>
<clipPath id="clip0_138_156054">
<rect width="36" height="36" fill="white"/>
</clipPath>
</defs>
</svg>
