<svg width="110" height="28" viewBox="0 0 110 28" fill="none" xmlns="http://www.w3.org/2000/svg">
<g id="Logo">
<g id="Group">
<g id="Group_2">
<path id="Vector" d="M59.9516 4.32565C61.0138 4.71853 61.9263 5.26102 62.6881 5.95427C63.4499 6.64752 64.0278 7.45041 64.4206 8.3618C64.8135 9.27433 65.01 10.2622 65.01 11.3244C65.01 12.3865 64.8135 13.3916 64.4206 14.3384C64.0278 15.2852 63.4556 16.1349 62.7052 16.8852C61.9549 17.6356 61.0423 18.2249 59.9688 18.6521C58.8952 19.0792 57.688 19.2928 56.3483 19.2928H50.285V27.9887H45.4688V3.73633H56.3826C57.6994 3.73633 58.8883 3.93277 59.9505 4.32565H59.9516ZM50.2861 7.54749V15.5159H55.7601C56.6613 15.5159 57.4345 15.3308 58.0809 14.962C58.7273 14.5931 59.2298 14.0962 59.5884 13.4727C59.9459 12.8491 60.1252 12.1558 60.1252 11.3941C60.1252 10.6791 59.9459 10.0258 59.5884 9.43651C59.2298 8.84719 58.7273 8.38579 58.0809 8.05115C57.4345 7.71652 56.6601 7.54863 55.7601 7.54863H50.2861V7.54749Z" fill="white"/>
<path id="Vector_2" d="M78.7237 27.9887V17.3523C78.7237 16.1977 78.412 15.3137 77.7884 14.7016C77.1648 14.0894 76.2865 13.7833 75.1547 13.7833C74.3233 13.7833 73.6072 13.9455 73.0064 14.2687C72.4057 14.5919 71.9443 15.0716 71.6211 15.7066C71.2979 16.3416 71.1357 17.1216 71.1357 18.0456V27.9887H66.5273V2.69702H71.1357V12.7097C71.5046 12.109 71.9728 11.6008 72.5393 11.1851C73.1047 10.7693 73.7351 10.4575 74.4272 10.2497C75.1205 10.0418 75.8822 9.93789 76.7137 9.93789C78.2384 9.93789 79.4912 10.2383 80.4723 10.839C81.4534 11.4397 82.1752 12.2483 82.6377 13.2637C83.0991 14.2801 83.331 15.4005 83.331 16.6248V27.9887H78.7226H78.7237Z" fill="white"/>
<path id="Vector_3" d="M89.5634 10.3535H84.9551V27.9886H89.5634V10.3535Z" fill="white"/>
<g id="Group_3">
<path id="Vector_4" d="M101.068 24.1318L103.992 27.9876H109.569L104.543 21.4434C104.543 21.4434 104.543 21.4434 104.541 21.4456L101.066 24.1307L101.068 24.1318Z" fill="white"/>
<path id="Vector_5" d="M97.1904 23.595L95.4293 21.3188L90.3047 27.9887H95.1894L97.991 24.2951C97.6849 24.1181 97.4096 23.8806 97.1892 23.595H97.1904Z" fill="white"/>
<path id="Vector_6" d="M102.394 14.0996L104.075 16.273L108.564 10.3535H103.852L101.537 13.3675C101.866 13.5491 102.16 13.7969 102.393 14.1007L102.394 14.0996Z" fill="white"/>
<path id="Vector_7" d="M96.0526 15.4644L97.4574 14.3783L89.4879 4.07317C90.0738 3.15835 90.0555 1.93631 89.3531 1.02721C88.4588 -0.128592 86.7982 -0.341021 85.6424 0.553238C84.4866 1.4475 84.2742 3.1081 85.1685 4.26389C85.872 5.173 87.0506 5.4985 88.0842 5.1593L96.0537 15.4644H96.0526Z" fill="white"/>
<path id="Vector_8" d="M104.819 19.4869C104.886 18.9547 104.744 18.4293 104.415 18.0056L101.766 14.5805C101.392 14.094 100.798 13.8027 100.181 13.8027C99.7378 13.8027 99.3026 13.9523 98.952 14.223L95.5292 16.8715C94.6555 17.5477 94.4944 18.8074 95.1683 19.6799L97.8202 23.1085C98.2039 23.603 98.7818 23.8863 99.4054 23.8863C99.8474 23.8863 100.283 23.7378 100.631 23.4683L104.057 20.8175C104.481 20.4908 104.752 20.0169 104.819 19.4858V19.4869ZM102.849 19.2562L99.4237 21.9059C99.4237 21.9059 99.4123 21.9116 99.4054 21.9116C99.3974 21.9116 99.3883 21.907 99.3826 21.9002L96.7329 18.475C96.7226 18.4613 96.7249 18.4431 96.7386 18.4339L100.164 15.7843C100.164 15.7843 100.175 15.7786 100.181 15.7786C100.19 15.7786 100.198 15.782 100.205 15.79L102.855 19.2151C102.865 19.2277 102.863 19.2459 102.85 19.2562H102.849Z" fill="white"/>
</g>
</g>
<path id="Vector_9" d="M100.954 18.5389C100.906 18.3562 100.818 18.1952 100.703 18.0615C100.657 18.1689 100.564 18.2546 100.441 18.2865C100.232 18.3425 100.017 18.2169 99.9617 18.0079C99.9286 17.8845 99.9583 17.76 100.031 17.6664C99.8555 17.6298 99.6682 17.6321 99.482 17.6812C98.8379 17.8514 98.4542 18.5104 98.6243 19.1534C98.7945 19.7975 99.4535 20.1813 100.096 20.0111C100.739 19.8409 101.123 19.1819 100.954 18.5389ZM99.5551 19.5611C99.4386 19.5919 99.3199 19.5223 99.289 19.4058C99.2582 19.2904 99.3279 19.1705 99.4444 19.1397C99.5597 19.1088 99.6796 19.1785 99.7105 19.295C99.7413 19.4115 99.6716 19.5303 99.5551 19.5611Z" fill="white"/>
</g>
<path id="Vector_10" d="M12.1861 3.69507C13.8056 3.69507 15.1716 3.96688 16.2828 4.51052C17.3941 5.05416 18.2381 5.77824 18.8171 6.6805C19.395 7.58275 19.6851 8.57865 19.6851 9.66593C19.6851 10.4071 19.5343 11.1529 19.234 11.9056C18.9325 12.6582 18.4699 13.3469 17.8452 13.9716C17.2205 14.5963 16.3753 15.0475 15.3109 15.3261C16.6528 15.4883 17.7298 15.8766 18.5396 16.4888C19.3493 17.1021 19.9455 17.8376 20.3281 18.693C20.7096 19.5496 20.9014 20.4176 20.9014 21.297C20.9014 22.1764 20.7107 23.0558 20.3281 23.8667C19.9466 24.6776 19.419 25.3948 18.7486 26.0195C18.077 26.6443 17.2559 27.1308 16.284 27.478C15.312 27.8252 14.2122 27.9988 12.9856 27.9988H0V3.69507H12.1861ZM12.9844 13.4166C13.5623 13.1162 14.0089 12.705 14.3207 12.1842C14.6336 11.6634 14.789 11.1027 14.789 10.5008C14.789 9.89891 14.6439 9.35528 14.355 8.86874C14.0649 8.38221 13.6309 7.99504 13.053 7.7061C12.4739 7.41715 11.7567 7.2721 10.9001 7.2721H4.8242V13.8688H10.9001C11.7099 13.8688 12.4043 13.7181 12.9833 13.4177L12.9844 13.4166ZM4.82534 17.3054V24.4229H11.9429C12.7994 24.4229 13.5338 24.2664 14.1471 23.9546C14.7604 23.6417 15.2172 23.2146 15.5188 22.6698C15.8191 22.1262 15.9699 21.5186 15.9699 20.847C15.9699 20.1755 15.8134 19.609 15.5016 19.0768C15.1887 18.5445 14.7318 18.1163 14.13 17.7919C13.5281 17.4676 12.7983 17.3054 11.9429 17.3054H4.82534Z" fill="white"/>
<path id="Vector_11" d="M22.8906 6.92379C22.3698 6.39158 22.1094 5.75543 22.1094 5.01421C22.1094 4.273 22.3698 3.64256 22.8906 3.12177C23.4114 2.60097 24.0532 2.34058 24.8173 2.34058C25.5813 2.34058 26.2004 2.60097 26.744 3.12177C27.2876 3.64256 27.5594 4.273 27.5594 5.01421C27.5594 5.75543 27.2876 6.39158 26.744 6.92379C26.2004 7.45601 25.5574 7.72211 24.8173 7.72211C24.0772 7.72211 23.4114 7.45601 22.8906 6.92379ZM27.1437 10.3261V27.9988H22.5262V10.3261H27.1437Z" fill="white"/>
<path id="Vector_12" d="M43.8442 27.9987H28.7754V24.77L38.0458 13.8334H29.2265V10.3271H43.4616V13.6255L34.2609 24.4583H43.843V27.9999L43.8442 27.9987Z" fill="white"/>
</g>
</svg>
